<svg width="159" height="37" viewBox="0 0 159 37" fill="none" xmlns="http://www.w3.org/2000/svg">
<path d="M16.6839 10.728V15.66H6.38793V20.988H14.0919V25.776H6.38793V36H0.231934V10.728H16.6839Z" fill="#1D1617"/>
<path d="M23.0154 13.824C21.9354 13.824 21.0474 13.512 20.3514 12.888C19.6794 12.24 19.3434 11.448 19.3434 10.512C19.3434 9.55199 19.6794 8.75999 20.3514 8.13599C21.0474 7.48799 21.9354 7.16399 23.0154 7.16399C24.0714 7.16399 24.9354 7.48799 25.6074 8.13599C26.3034 8.75999 26.6514 9.55199 26.6514 10.512C26.6514 11.448 26.3034 12.24 25.6074 12.888C24.9354 13.512 24.0714 13.824 23.0154 13.824ZM26.0754 15.912V36H19.9194V15.912H26.0754Z" fill="#1D1617"/>
<path d="M41.7326 30.78V36H38.6006C36.3686 36 34.6286 35.46 33.3806 34.38C32.1326 33.276 31.5086 31.488 31.5086 29.016V21.024H29.0606V15.912H31.5086V11.016H37.6646V15.912H41.6966V21.024H37.6646V29.088C37.6646 29.688 37.8086 30.12 38.0966 30.384C38.3846 30.648 38.8646 30.78 39.5366 30.78H41.7326Z" fill="#1D1617"/>
<path d="M57.4016 15.696C59.7536 15.696 61.6256 16.464 63.0176 18C64.4336 19.512 65.1416 21.6 65.1416 24.264V36H59.0216V25.092C59.0216 23.748 58.6736 22.704 57.9776 21.96C57.2816 21.216 56.3456 20.844 55.1696 20.844C53.9936 20.844 53.0576 21.216 52.3616 21.96C51.6656 22.704 51.3176 23.748 51.3176 25.092V36H45.1616V15.912H51.3176V18.576C51.9416 17.688 52.7816 16.992 53.8376 16.488C54.8936 15.96 56.0816 15.696 57.4016 15.696Z" fill="#1D1617"/>
<path d="M88.3554 25.632C88.3554 26.208 88.3194 26.808 88.2474 27.432H74.3154C74.4114 28.68 74.8074 29.64 75.5034 30.312C76.2234 30.96 77.0994 31.284 78.1314 31.284C79.6674 31.284 80.7354 30.636 81.3354 29.34H87.8874C87.5514 30.66 86.9394 31.848 86.0514 32.904C85.1874 33.96 84.0954 34.788 82.7754 35.388C81.4554 35.988 79.9794 36.288 78.3474 36.288C76.3794 36.288 74.6274 35.868 73.0914 35.028C71.5554 34.188 70.3554 32.988 69.4914 31.428C68.6274 29.868 68.1954 28.044 68.1954 25.956C68.1954 23.868 68.6154 22.044 69.4554 20.484C70.3194 18.924 71.5194 17.724 73.0554 16.884C74.5914 16.044 76.3554 15.624 78.3474 15.624C80.2914 15.624 82.0194 16.032 83.5314 16.848C85.0434 17.664 86.2194 18.828 87.0594 20.34C87.9234 21.852 88.3554 23.616 88.3554 25.632ZM82.0554 24.012C82.0554 22.956 81.6954 22.116 80.9754 21.492C80.2554 20.868 79.3554 20.556 78.2754 20.556C77.2434 20.556 76.3674 20.856 75.6474 21.456C74.9514 22.056 74.5194 22.908 74.3514 24.012H82.0554Z" fill="#1D1617"/>
<path d="M99.775 36.288C98.023 36.288 96.463 35.988 95.095 35.388C93.727 34.788 92.647 33.972 91.855 32.94C91.063 31.884 90.619 30.708 90.523 29.412H96.607C96.679 30.108 97.003 30.672 97.579 31.104C98.155 31.536 98.863 31.752 99.703 31.752C100.471 31.752 101.059 31.608 101.467 31.32C101.899 31.008 102.115 30.612 102.115 30.132C102.115 29.556 101.815 29.136 101.215 28.872C100.615 28.584 99.643 28.272 98.299 27.936C96.859 27.6 95.659 27.252 94.699 26.892C93.739 26.508 92.911 25.92 92.215 25.128C91.519 24.312 91.171 23.22 91.171 21.852C91.171 20.7 91.483 19.656 92.107 18.72C92.755 17.76 93.691 17.004 94.915 16.452C96.163 15.9 97.639 15.624 99.343 15.624C101.863 15.624 103.843 16.248 105.283 17.496C106.747 18.744 107.587 20.4 107.803 22.464H102.115C102.019 21.768 101.707 21.216 101.179 20.808C100.675 20.4 100.003 20.196 99.163 20.196C98.443 20.196 97.891 20.34 97.507 20.628C97.123 20.892 96.931 21.264 96.931 21.744C96.931 22.32 97.231 22.752 97.831 23.04C98.455 23.328 99.415 23.616 100.711 23.904C102.199 24.288 103.411 24.672 104.347 25.056C105.283 25.416 106.099 26.016 106.795 26.856C107.515 27.672 107.887 28.776 107.911 30.168C107.911 31.344 107.575 32.4 106.903 33.336C106.255 34.248 105.307 34.968 104.059 35.496C102.835 36.024 101.407 36.288 99.775 36.288Z" fill="#1D1617"/>
<path d="M122.873 30.78V36H119.741C117.509 36 115.769 35.46 114.521 34.38C113.273 33.276 112.649 31.488 112.649 29.016V21.024H110.201V15.912H112.649V11.016H118.805V15.912H122.837V21.024H118.805V29.088C118.805 29.688 118.949 30.12 119.237 30.384C119.525 30.648 120.005 30.78 120.677 30.78H122.873Z" fill="#1D1617"/>
<path d="M148.67 36L141.52 25.25L135.22 36H125.52L136.77 18.15L125.27 0.899994H135.22L142.27 11.5L148.47 0.899994H158.17L147.02 18.6L158.62 36H148.67Z" fill="url(#paint0_linear_426_153)"/>
<defs>
<linearGradient id="paint0_linear_426_153" x1="290.611" y1="69.0547" x2="-55.3045" y2="-48.5709" gradientUnits="userSpaceOnUse">
<stop stop-color="#CC8FED"/>
<stop offset="1" stop-color="#9DCEFF"/>
</linearGradient>
</defs>
</svg>
