<svg width="29" height="40" viewBox="0 0 29 40" fill="none" xmlns="http://www.w3.org/2000/svg">
<path d="M23.0843 5.24426C23.0843 5.24426 23.0843 5.40513 23.0602 5.67861C22.9838 6.84893 22.7224 10.1427 22.1231 12.0169C21.9542 12.5397 21.4274 13.7744 20.808 15.1739C19.8991 17.2733 18.7891 19.6863 18.3668 20.7521C18.2301 21.098 16.9029 20.4424 16.549 20.3781C15.6562 20.2051 15.5476 18.6125 15.8371 17.2733C15.9309 16.8045 16.1021 16.3546 16.3439 15.9421L16.4203 15.8255L16.4726 15.749C16.9632 15.0332 17.7636 14.1082 18.4834 13.2676C19.0161 12.6865 19.4891 12.0532 19.8951 11.3774C20.2973 10.5208 21.5882 5.39306 21.5882 5.39306C22.1955 4.7335 23.0843 5.24426 23.0843 5.24426Z" fill="#FFEDE5"/>
<path d="M23.2534 4.68947C23.2091 4.88251 23.1729 5.06751 23.1448 5.21632C23.0925 5.4898 23.0684 5.67077 23.0684 5.67077C22.6179 6.14132 21.7412 5.67077 21.7412 5.67077C21.6815 5.59034 21.6277 5.50566 21.5803 5.41741C21.3387 5.00211 21.2425 4.51811 21.3068 4.04197C21.3712 3.67599 21.4355 2.83545 21.4355 2.83545H21.5964C21.7653 2.83545 21.8176 3.35828 21.8297 3.6036C21.8328 3.63704 21.8328 3.6707 21.8297 3.70414C21.8389 3.66086 21.8567 3.61985 21.8819 3.58349C21.9355 3.51865 22.0043 3.46816 22.0823 3.43657C22.1602 3.40497 22.2448 3.39327 22.3284 3.40251C22.5335 3.40251 22.7305 3.40251 22.9397 3.40251C23.0339 3.4005 23.1274 3.41975 23.2131 3.45882C23.2438 3.47144 23.2712 3.49067 23.2936 3.51512C23.563 3.7886 23.3257 4.40393 23.2534 4.68947Z" fill="#FFEDE5"/>
<path d="M23.2533 4.68952C23.2091 4.88256 23.1729 5.06756 23.1447 5.21637C23.1132 5.16836 23.0782 5.12266 23.0402 5.07963C22.8627 4.9074 22.6538 4.77086 22.4249 4.67746C22.1675 4.54072 21.4596 4.13854 21.6768 3.73235C21.7137 3.67694 21.7672 3.63468 21.8296 3.61169L21.89 3.59159C22.2228 3.54143 22.5588 3.51455 22.8954 3.51115C23.004 3.51115 23.1126 3.47496 23.2212 3.46289C23.2512 3.47649 23.2785 3.49559 23.3016 3.5192C23.563 3.78865 23.3257 4.40398 23.2533 4.68952Z" fill="#E0855C"/>
<path d="M17.1121 12.2665C17.2441 11.5103 17.4295 10.7644 17.6671 10.0345C17.6965 9.95586 17.7053 9.87101 17.6926 9.78803C17.6798 9.70506 17.646 9.62673 17.5944 9.56056C17.5427 9.49438 17.4749 9.44256 17.3975 9.41006C17.3201 9.37756 17.2357 9.36546 17.1523 9.37491C16.9804 9.40501 16.8129 9.45634 16.6536 9.52774C16.6536 9.52774 17.0558 8.36948 16.4887 7.98741C15.9216 7.60535 15.0811 8.3373 14.7553 8.88426C14.8184 8.76731 14.836 8.63119 14.8049 8.50203C14.7737 8.37287 14.6959 8.25978 14.5864 8.18448C14.1843 7.92709 12.3865 9.9098 12.7404 11.5386C13.0944 13.1674 13.2432 12.7089 13.2432 12.7089C13.2432 12.7089 16.9995 12.4757 17.1121 12.2665Z" fill="#3B2645"/>
<path d="M13.1426 12.0047C13.1026 11.9498 13.0503 11.9052 12.9898 11.8744C12.9294 11.8437 12.8625 11.8276 12.7947 11.8276C12.7268 11.8276 12.66 11.8437 12.5995 11.8744C12.5391 11.9052 12.4867 11.9498 12.4468 12.0047C12.0969 12.4068 12.6921 13.2112 13.1426 13.2594C13.169 12.8416 13.169 12.4225 13.1426 12.0047Z" fill="#E0855C"/>
<path d="M19.6296 16.8712C19.0958 18.1322 18.6732 19.4376 18.3668 20.7723C18.3426 20.9009 18.3185 21.0216 18.2984 21.1382C18.1657 21.9426 17.7635 25.908 17.6992 26.5314C17.6992 26.5837 17.6992 26.6118 17.6992 26.6118C14.5501 27.4805 11.2644 26.6118 11.2644 26.6118C11.2644 26.6118 11.2644 26.5515 11.2644 26.4349C11.192 25.6627 10.8823 22.4574 10.6973 19.6864C10.6008 18.2707 10.5405 16.9717 10.5565 16.1633C10.5565 15.8657 11.2483 15.8979 11.7228 15.8295C12.2925 15.7564 12.8659 15.7161 13.4401 15.7089H13.6171L13.6573 15.2464L13.6895 14.9367L13.7659 14.1082C13.8182 14.1082 13.8705 14.1283 13.9227 14.1324C14.0237 14.1509 14.1258 14.1616 14.2284 14.1645C14.3529 14.1747 14.4779 14.1747 14.6024 14.1645L14.7794 14.1444C14.8577 14.1366 14.9356 14.1245 15.0126 14.1082C15.1413 14.0801 15.266 14.0439 15.3826 14.0077L15.4872 13.9715H15.5153L15.5958 13.9393C15.7458 13.8796 15.8911 13.8083 16.0301 13.7262C16.1065 13.6819 16.1709 13.6377 16.2232 13.6015L16.2594 13.5774L16.3277 13.5251C16.3468 13.5157 16.3634 13.5019 16.376 13.4849C16.376 13.5452 16.376 13.5693 16.376 13.5975C16.3398 13.8589 16.3036 14.1967 16.2875 14.5345C16.2875 14.7638 16.2634 14.993 16.2553 15.1941C16.2553 15.5359 16.2553 15.7853 16.2553 15.7853C16.3304 15.7813 16.4055 15.7813 16.4806 15.7853C16.4842 15.7832 16.4884 15.7821 16.4926 15.7821C16.4969 15.7821 16.501 15.7832 16.5047 15.7853C16.8326 15.8006 17.1591 15.8383 17.482 15.8979C18.2233 16.0311 18.9362 16.291 19.5894 16.6661C19.6187 16.6903 19.6388 16.724 19.6461 16.7614C19.6535 16.7988 19.6476 16.8376 19.6296 16.8712Z" fill="#FFEDE5"/>
<path d="M16.3682 13.4487C16.3146 13.7369 16.1976 14.0096 16.0255 14.2469C15.8535 14.4842 15.6308 14.6803 15.3736 14.8208C15.1163 14.9614 14.8311 15.0429 14.5384 15.0595C14.2458 15.076 13.9531 15.0273 13.6816 14.9167L13.7581 14.0882C14.2135 14.176 14.6826 14.1644 15.1331 14.054C15.5836 13.9436 16.0049 13.7372 16.3682 13.4487Z" fill="#E0855C"/>
<path d="M13.2432 10.7983C13.01 11.0356 12.9939 11.5785 12.9738 12.1737C12.9135 13.9795 13.4564 14.5466 14.3774 14.6431C15.2984 14.7396 16.2676 14.3897 16.4647 12.7127C16.5652 11.8761 16.6698 11.104 16.3681 10.738C15.8936 10.1991 13.931 10.0583 13.2432 10.7983Z" fill="#FFEDE5"/>
<path d="M16.3159 12.4715C16.3159 12.4715 16.6014 11.7235 17.0438 12.1216C17.4862 12.5198 16.8628 13.6539 16.1952 13.5654C16.1952 13.5654 16.0987 12.7289 16.3159 12.4715Z" fill="#FFEDE5"/>
<path d="M16.8387 12.4474C16.7346 12.4835 16.6408 12.5442 16.5652 12.6244C16.4832 12.6947 16.4162 12.7809 16.3682 12.8777C16.3682 12.9099 16.3963 12.926 16.4204 12.9099C16.4446 12.8938 16.521 12.7893 16.5773 12.733C16.6115 12.7773 16.6556 12.8131 16.706 12.8375C16.7152 12.839 16.7247 12.838 16.7335 12.8346C16.7422 12.8311 16.7498 12.8254 16.7556 12.818C16.7613 12.8106 16.765 12.8018 16.7662 12.7925C16.7674 12.7832 16.766 12.7737 16.7623 12.7651C16.7343 12.7237 16.6971 12.6893 16.6537 12.6646C16.7289 12.6151 16.8001 12.56 16.8669 12.4997C16.8709 12.4948 16.8733 12.4888 16.8739 12.4824C16.8745 12.4761 16.8732 12.4698 16.8702 12.4642C16.8672 12.4586 16.8626 12.454 16.857 12.451C16.8514 12.4481 16.845 12.4468 16.8387 12.4474Z" fill="#E0855C"/>
<path d="M13.7458 12.1297C13.7458 12.1297 13.589 12.19 13.6131 11.9125C13.6372 11.635 13.7458 11.6993 13.7458 11.6993C13.7458 11.6993 13.8544 11.6993 13.8383 11.9165C13.8223 12.1337 13.7458 12.1297 13.7458 12.1297Z" fill="#3B2645"/>
<path d="M15.3303 12.1297C15.3303 12.1297 15.1735 12.19 15.1976 11.9125C15.2217 11.635 15.3303 11.6993 15.3303 11.6993C15.3303 11.6993 15.4389 11.6993 15.4228 11.9165C15.4067 12.1337 15.3303 12.1297 15.3303 12.1297Z" fill="#3B2645"/>
<path d="M14.4496 12.8694C14.3732 12.8694 14.1923 12.9016 14.152 12.8171C14.1676 12.6253 14.2068 12.4362 14.2687 12.2541C14.343 12.0083 14.4034 11.7586 14.4496 11.506C14.4496 11.506 14.4496 11.4859 14.4215 11.506C14.2625 11.9435 14.1375 12.3926 14.0475 12.8493C14.0463 12.8549 14.0464 12.8606 14.0476 12.8662C14.0488 12.8718 14.0513 12.877 14.0547 12.8816C14.0581 12.8861 14.0625 12.8899 14.0675 12.8927C14.0725 12.8954 14.078 12.8971 14.0837 12.8975C14.2003 12.8975 14.3129 12.9217 14.4295 12.9217C14.4858 12.9377 14.4979 12.8734 14.4496 12.8694Z" fill="#E0855C"/>
<path d="M13.9187 11.2928C13.8061 11.2325 13.597 11.2205 13.5165 11.3371C13.5137 11.342 13.5122 11.3476 13.5122 11.3532C13.5122 11.3589 13.5137 11.3645 13.5166 11.3694C13.5194 11.3743 13.5236 11.3783 13.5285 11.3811C13.5334 11.3839 13.539 11.3854 13.5447 11.3853C13.601 11.3853 13.6492 11.3572 13.7055 11.3532C13.7645 11.3504 13.8234 11.3599 13.8785 11.3813C13.9308 11.3974 13.967 11.317 13.9187 11.2928Z" fill="#3B2645"/>
<path d="M15.5637 11.4299C15.4993 11.269 15.2218 11.2529 15.1052 11.3534C15.0984 11.3567 15.0927 11.3619 15.0887 11.3683C15.0846 11.3747 15.0825 11.3821 15.0825 11.3896C15.0825 11.3972 15.0846 11.4046 15.0887 11.411C15.0927 11.4174 15.0984 11.4225 15.1052 11.4258C15.1736 11.45 15.246 11.4258 15.3184 11.4258C15.3768 11.4352 15.4337 11.4528 15.4873 11.4781C15.5396 11.4942 15.5758 11.458 15.5637 11.4299Z" fill="#3B2645"/>
<path d="M14.0476 13.4284C14.393 13.4738 14.7439 13.412 15.053 13.2515C15.0068 13.3584 14.9389 13.4546 14.8538 13.5342C14.7687 13.6138 14.6682 13.675 14.5584 13.714C14.2085 13.8185 14.0476 13.4284 14.0476 13.4284Z" fill="white"/>
<path d="M13.4001 20.3784C13.0542 20.4427 11.4656 20.6197 11.1841 20.3784C10.982 20.1768 10.8149 19.943 10.6894 19.6866C10.0452 18.3298 9.48253 16.9358 9.00431 15.5121C8.4654 13.9918 8.00692 12.5762 7.83399 12.0373C7.21062 10.143 6.96931 6.84521 6.8929 5.67489C6.87279 5.40141 6.86475 5.24456 6.86475 5.24456C6.86475 5.24456 7.74551 4.74587 8.3729 5.40141C8.3729 5.40141 9.68399 10.5331 10.0701 11.3898C10.3943 11.948 10.7757 12.471 11.2082 12.9502C11.9522 13.843 12.8692 14.8887 13.4322 15.689L13.5368 15.8378L13.6132 15.9545C13.9678 16.5974 14.179 17.3095 14.2326 18.0417C14.3371 19.1517 14.132 20.2376 13.4001 20.3784Z" fill="#FFEDE5"/>
<path d="M8.37275 5.40118C8.32536 5.48943 8.2716 5.57411 8.21188 5.65455C8.21188 5.65455 7.33916 6.13715 6.89275 5.67465C6.89275 5.67465 6.87264 5.54998 6.83645 5.35694C6.80025 5.16389 6.76003 4.95476 6.69971 4.68933C6.65145 4.49629 6.33775 3.72813 6.49862 3.59139C6.5371 3.56535 6.5812 3.54881 6.62732 3.54313L7.16623 3.44661C7.4759 3.39031 7.99471 3.30585 8.11938 3.69596C8.11938 3.47074 8.11938 2.93987 8.35264 2.82324H8.52155C8.52155 2.82324 8.58188 3.6477 8.64623 4.02976C8.70969 4.50458 8.61348 4.98702 8.37275 5.40118Z" fill="#FFEDE5"/>
<path d="M10.6492 27.3277C10.6492 27.3277 8.9842 31.82 8.91583 40.3179C8.91583 40.9936 7.60072 45.6709 8.11148 52.2062L10.0701 52.5762C10.0701 52.5762 11.9683 45.6749 12.0528 40.9654C12.0528 40.9654 14.4658 32.6083 14.6307 28.7635C14.7956 24.9187 12.2378 23.672 10.6492 27.3277Z" fill="#FFEDE5"/>
<path d="M18.2382 27.3277C18.2382 27.3277 19.9032 31.82 19.9676 40.3179C19.9676 40.9936 21.2867 45.6709 20.7719 52.2062L18.8134 52.5762C18.8134 52.5762 16.9191 45.6749 16.8306 40.9654C16.8306 40.9654 14.4176 32.6083 14.2527 28.7635C14.0878 24.9187 16.6497 23.672 18.2382 27.3277Z" fill="#FFEDE5"/>
<path d="M20.808 15.1742C19.8991 17.2736 18.7931 19.6866 18.3668 20.7524C18.3426 20.8811 18.3185 21.0017 18.2984 21.1183C18.1657 21.9227 17.7635 25.8881 17.6992 26.5115C16.6093 26.8453 14.3933 27.2394 11.2644 26.415C11.192 25.6428 10.8823 22.4375 10.6973 19.6665C10.0531 18.3097 9.49042 16.9157 9.01221 15.4919C9.76427 15.0174 10.818 14.1688 11.2161 12.9502C11.9601 13.843 12.8771 14.8887 13.4401 15.689H13.5206C13.5206 15.7332 13.5206 15.7855 13.5447 15.8378C13.6451 16.6077 13.8806 17.3538 14.2405 18.0417C14.2925 18.1377 14.3661 18.2203 14.4554 18.283C14.5447 18.3458 14.6473 18.3871 14.7552 18.4037C15.1574 18.4037 15.5395 17.8969 15.8451 17.2856C16.0743 16.8178 16.2692 16.3339 16.4283 15.8378L16.4564 15.7614C16.4601 15.7593 16.4643 15.7582 16.4685 15.7582C16.4727 15.7582 16.4769 15.7593 16.4806 15.7614C16.9712 15.0455 17.7716 14.1205 18.4914 13.28C18.8735 13.8269 19.7905 14.9208 20.808 15.1742Z" fill="#E8CEE5"/>
<path d="M20.056 36.4854C18.9996 37.0356 17.8077 37.2715 16.6214 37.1651C16.2035 37.1295 15.7951 37.0206 15.4149 36.8433L14.4497 31.4542L13.5126 36.8433C11.4776 37.5793 8.68652 36.236 8.68652 36.236C9.57533 27.5209 11.2323 26.2139 11.2323 26.2139C13.963 27.1027 17.7234 26.242 17.7234 26.242C19.6498 28.828 20.056 36.4854 20.056 36.4854Z" fill="#3B2645"/>
<path d="M6.87281 5.3368H6.83661C6.80444 5.16387 6.7602 4.93463 6.69987 4.6692C6.65161 4.47615 6.34194 3.71202 6.49878 3.57126C6.53759 3.54586 6.58154 3.52938 6.62748 3.523L7.16639 3.42648C7.39466 3.36826 7.63389 3.36826 7.86215 3.42648C7.97061 3.47688 8.06151 3.55858 8.12315 3.66107C8.18479 3.76356 8.21435 3.88216 8.20802 4.00159C8.20802 4.7255 7.06183 5.23626 6.87281 5.3368Z" fill="#E0855C"/>
<path d="M28.4493 3.79247H0.232824C0.168564 3.78452 0.109429 3.75335 0.0665483 3.70483C0.0236678 3.65632 0 3.5938 0 3.52905C0 3.4643 0.0236678 3.40178 0.0665483 3.35327C0.109429 3.30475 0.168564 3.27358 0.232824 3.26562H28.4493C28.5136 3.27358 28.5727 3.30475 28.6156 3.35327C28.6585 3.40178 28.6822 3.4643 28.6822 3.52905C28.6822 3.5938 28.6585 3.65632 28.6156 3.70483C28.5727 3.75335 28.5136 3.78452 28.4493 3.79247Z" fill="#3B2645"/>
<path d="M1.12963 4.87839C1.01086 4.87839 0.8969 4.83149 0.812542 4.74789C0.728184 4.66428 0.68026 4.55074 0.679199 4.43198V2.62622C0.679199 2.50675 0.726656 2.39218 0.811128 2.30771C0.895601 2.22324 1.01017 2.17578 1.12963 2.17578C1.2491 2.17578 1.36367 2.22324 1.44814 2.30771C1.53261 2.39218 1.58007 2.50675 1.58007 2.62622V4.43198C1.58007 4.49094 1.56839 4.54932 1.54571 4.60375C1.52302 4.65817 1.48978 4.70756 1.4479 4.74907C1.40602 4.79057 1.35633 4.82337 1.3017 4.84557C1.24708 4.86777 1.1886 4.87892 1.12963 4.87839Z" fill="#3B2645"/>
<path d="M2.02247 6.45466C1.90514 6.45466 1.79262 6.40805 1.70965 6.32508C1.62669 6.24212 1.58008 6.12959 1.58008 6.01227V1.04944C1.58008 0.931044 1.62711 0.817497 1.71083 0.733779C1.79455 0.65006 1.9081 0.603027 2.02649 0.603027C2.14489 0.603027 2.25843 0.65006 2.34215 0.733779C2.42587 0.817497 2.4729 0.931044 2.4729 1.04944V6.01227C2.47238 6.07089 2.46031 6.12884 2.43739 6.1828C2.41447 6.23676 2.38114 6.28567 2.33931 6.32675C2.29749 6.36784 2.24798 6.40027 2.19361 6.42222C2.13925 6.44416 2.08109 6.45519 2.02247 6.45466Z" fill="#291B30"/>
<path d="M2.91541 7.21902C2.79701 7.21902 2.68346 7.17199 2.59975 7.08827C2.51603 7.00455 2.46899 6.891 2.46899 6.77261V0.446413C2.46899 0.328017 2.51603 0.21447 2.59975 0.130751C2.68346 0.0470327 2.79701 0 2.91541 0C3.0338 0 3.14735 0.0470327 3.23107 0.130751C3.31479 0.21447 3.36182 0.328017 3.36182 0.446413V6.76054C3.36343 6.82017 3.35308 6.87952 3.33137 6.93508C3.30965 6.99065 3.27703 7.04129 3.23541 7.08403C3.1938 7.12677 3.14404 7.16074 3.08908 7.18392C3.03411 7.20711 2.97506 7.21904 2.91541 7.21902Z" fill="#3B2645"/>
<path d="M27.1625 4.87827C27.2809 4.87827 27.3944 4.83124 27.4781 4.74752C27.5619 4.6638 27.6089 4.55026 27.6089 4.43186V2.6261C27.6089 2.56748 27.5973 2.50943 27.5749 2.45527C27.5525 2.4011 27.5196 2.35189 27.4781 2.31044C27.4367 2.26899 27.3875 2.2361 27.3333 2.21367C27.2792 2.19123 27.2211 2.17969 27.1625 2.17969C27.1039 2.17969 27.0458 2.19123 26.9916 2.21367C26.9375 2.2361 26.8883 2.26899 26.8468 2.31044C26.8054 2.35189 26.7725 2.4011 26.75 2.45527C26.7276 2.50943 26.7161 2.56748 26.7161 2.6261V4.43186C26.7161 4.55026 26.7631 4.6638 26.8468 4.74752C26.9305 4.83124 27.0441 4.87827 27.1625 4.87827Z" fill="#3B2645"/>
<path d="M26.2697 6.45466C26.3874 6.45466 26.5003 6.40818 26.5839 6.32533C26.6675 6.24248 26.715 6.12996 26.7161 6.01227V1.04944C26.7161 0.931044 26.669 0.817497 26.5853 0.733779C26.5016 0.65006 26.3881 0.603027 26.2697 0.603027C26.1513 0.603027 26.0377 0.65006 25.954 0.733779C25.8703 0.817497 25.8232 0.931044 25.8232 1.04944V6.01227C25.8243 6.12996 25.8718 6.24248 25.9554 6.32533C26.039 6.40818 26.152 6.45466 26.2697 6.45466Z" fill="#291B30"/>
<path d="M25.3768 7.21902C25.4951 7.21902 25.6087 7.17199 25.6924 7.08827C25.7761 7.00455 25.8232 6.891 25.8232 6.77261V0.446413C25.8232 0.328017 25.7761 0.21447 25.6924 0.130751C25.6087 0.0470327 25.4951 0 25.3768 0C25.2584 0 25.1448 0.0470327 25.0611 0.130751C24.9774 0.21447 24.9303 0.328017 24.9303 0.446413V6.76054C24.9287 6.82017 24.9391 6.87952 24.9608 6.93508C24.9825 6.99065 25.0151 7.04129 25.0567 7.08403C25.0984 7.12677 25.1481 7.16074 25.2031 7.18392C25.258 7.20711 25.3171 7.21904 25.3768 7.21902Z" fill="#3B2645"/>
<path d="M6.8807 4.09829C6.89666 4.13814 6.92141 4.17388 6.95309 4.20285C7.001 4.2345 7.0566 4.25257 7.11396 4.25514C7.29267 4.27198 7.47289 4.2625 7.64885 4.22698C7.81215 4.20524 7.9621 4.12526 8.07113 4.00177C8.12797 3.92053 8.16269 3.82589 8.17185 3.72717C8.18102 3.62845 8.16433 3.52904 8.12342 3.43872C8.06291 3.29655 7.96928 3.1709 7.85035 3.07226C7.73142 2.97362 7.59063 2.90484 7.43972 2.87166C7.19037 2.81535 6.55896 2.83948 6.45842 3.14916C6.40613 3.30198 6.55494 3.45481 6.62733 3.57546C6.69972 3.69611 6.80831 3.92938 6.8807 4.09829Z" fill="#FFEDE5"/>
<path d="M22.8954 4.09829C22.8794 4.13917 22.8531 4.17521 22.819 4.20285C22.7713 4.23507 22.7156 4.25319 22.6581 4.25514C22.4807 4.27188 22.3018 4.26239 22.1272 4.22698C21.9587 4.2072 21.8031 4.12722 21.6889 4.00177C21.6319 3.9205 21.5974 3.82562 21.589 3.72674C21.5805 3.62786 21.5983 3.5285 21.6406 3.43872C21.7007 3.29702 21.7937 3.17168 21.9119 3.07307C22.0301 2.97446 22.1701 2.90542 22.3203 2.87166C22.5736 2.81535 23.2051 2.83948 23.3056 3.14916C23.3579 3.30198 23.2091 3.45481 23.1367 3.57546C23.0643 3.69611 22.9839 3.92938 22.8954 4.09829Z" fill="#FFEDE5"/>
<path d="M16.6214 37.165C16.2035 37.1294 15.7951 37.0205 15.4149 36.8432L14.4497 31.4541C14.4497 31.4541 15.6562 33.1794 16.6214 37.165Z" fill="#291B30"/>
<path d="M13.1306 22.2925C13.1283 22.3139 13.1283 22.3354 13.1306 22.3568C13.1306 22.3568 13.1668 22.3568 13.1588 22.3568L13.1306 22.2925Z" fill="#D6BED3"/>
<path d="M17.3173 18.13C17.1326 17.5174 17.0073 16.8885 16.9433 16.2518C16.9433 16.2348 16.9365 16.2184 16.9244 16.2063C16.9124 16.1943 16.896 16.1875 16.8789 16.1875C16.8619 16.1875 16.8455 16.1943 16.8334 16.2063C16.8214 16.2184 16.8146 16.2348 16.8146 16.2518C16.6738 17.4141 17.1645 18.8338 17.7758 19.8111C17.7863 19.8259 17.8016 19.8367 17.8192 19.8418C17.8367 19.8468 17.8554 19.8457 17.8722 19.8387C17.8891 19.8317 17.903 19.8191 17.9118 19.8032C17.9206 19.7872 17.9237 19.7687 17.9206 19.7508C17.7677 19.1958 17.4983 18.677 17.3173 18.13Z" fill="#D6BED3"/>
<path d="M12.8892 16.0346C12.5594 16.5534 12.2778 17.1043 11.9481 17.6433C11.6183 18.1822 11.2322 18.6406 10.9426 19.1796C10.9373 19.1865 10.9349 19.1953 10.9361 19.2039C10.9372 19.2126 10.9417 19.2205 10.9487 19.2258C10.9556 19.2311 10.9644 19.2335 10.973 19.2324C10.9817 19.2312 10.9896 19.2267 10.9949 19.2198C11.8656 18.3155 12.549 17.248 13.0058 16.0788C13.0259 16.0144 12.9253 15.9742 12.8892 16.0346Z" fill="#D6BED3"/>
</svg>
