<svg width="3" height="76" viewBox="0 0 3 76" fill="none" xmlns="http://www.w3.org/2000/svg">
<g clip-path="url(#clip0_326_4063)">
<path d="M22 18.4102H3.85C2.82892 18.4102 1.84965 18.8158 1.12764 19.5378C0.405624 20.2598 0 21.2391 0 22.2602L0 71.2602C-1.49446e-06 71.8388 0.114138 72.4118 0.335884 72.9463C0.55763 73.4808 0.882626 73.9663 1.29226 74.375C1.7019 74.7837 2.18813 75.1076 2.72312 75.3281C3.25811 75.5486 3.83134 75.6615 4.41 75.6602H21.41C22.577 75.6602 23.6961 75.1966 24.5213 74.3714C25.3464 73.5463 25.81 72.4271 25.81 71.2602V22.2602C25.8127 21.2452 25.4134 20.2704 24.6994 19.549C23.9855 18.8275 23.015 18.4181 22 18.4102Z" fill="#4292A6"/>
<path d="M25.85 27.0503H0V41.4703H25.85V27.0503Z" fill="#163138"/>
<path d="M12.6001 29.21H7.32007C4.69672 29.21 2.57007 31.3366 2.57007 33.96V34.05C2.57007 36.6733 4.69672 38.8 7.32007 38.8H12.6001C15.2234 38.8 17.3501 36.6733 17.3501 34.05V33.96C17.3501 31.3366 15.2234 29.21 12.6001 29.21Z" fill="#295C69"/>
</g>
<defs>
<clipPath id="clip0_326_4063">
<rect width="25.85" height="75.67" fill="white"/>
</clipPath>
</defs>
</svg>
