<svg width="315" height="67" viewBox="0 0 315 67" fill="none" xmlns="http://www.w3.org/2000/svg">
<path d="M-11.4546 13C1.10774 27.9727 31.963 37.1604 80.8996 40.5C136.19 44.2733 161.872 15.4264 213.652 22.5C251.706 27.6985 242.734 40.8968 272.089 50C296.734 57.6426 313.516 61.3253 345 66" stroke="white" stroke-width="1.2"/>
<path d="M-11.4546 1C1.10774 15.9727 31.963 25.1604 80.8996 28.5C136.19 32.2733 161.872 3.4264 213.652 10.5C251.706 15.6985 242.734 28.8968 272.089 38C296.734 45.6426 313.516 49.3253 345 54" stroke="white" stroke-width="1.2"/>
<path d="M-11.4546 5C1.10774 19.9727 31.963 29.1604 80.8996 32.5C136.19 36.2733 161.872 7.4264 213.652 14.5C251.706 19.6985 242.734 32.8968 272.089 42C296.734 49.6426 313.516 53.3253 345 58" stroke="white" stroke-width="1.2"/>
<path d="M-11.4546 9C1.10774 23.9727 31.963 33.1604 80.8996 36.5C136.19 40.2733 161.872 11.4264 213.652 18.5C251.706 23.6985 242.734 36.8968 272.089 46C296.734 53.6426 313.516 57.3253 345 62" stroke="white" stroke-width="1.2"/>
</svg>
